Coordinates
version=1
nRows=16
nColumns=40
inDegrees=yes

Units are S.I. units (second, meters, Newtons, ...)
Angles are in degrees.

endheader
time	pelvis_tilt	pelvis_list	pelvis_rotation	pelvis_tx	pelvis_ty	pelvis_tz	hip_flexion_r	hip_adduction_r	hip_rotation_r	knee_angle_r	knee_angle_r_beta	ankle_angle_r	subtalar_angle_r	mtp_angle_r	hip_flexion_l	hip_adduction_l	hip_rotation_l	knee_angle_l	knee_angle_l_beta	ankle_angle_l	subtalar_angle_l	mtp_angle_l	lumbar_extension	lumbar_bending	lumbar_rotation	arm_flex_r	arm_add_r	arm_rot_r	elbow_flex_r	pro_sup_r	wrist_flex_r	wrist_dev_r	arm_flex_l	arm_add_l	arm_rot_l	elbow_flex_l	pro_sup_l	wrist_flex_l	wrist_dev_l
     29.25000000	     -6.37414120	     -2.95902153	     -4.77484511	      1.06758918	      0.91613725	      0.41529968	     33.02062378	     -3.41027988	    -13.18513161	     15.94624147	     15.94624147	      4.12016404	      6.77149460	     10.50549863	      2.05421948	     -4.02777471	     -6.76341116	     15.56169534	     15.56169534	     21.31204307	     -2.12712061	     -3.64093358	    -11.78775526	      0.83400939	      3.91227224	    -10.00711771	    -17.56994519	     -9.04183816	     24.10314129	     47.58048572	      0.00000000	      0.00000000	     26.87619022	    -21.83113185	     -3.66404618	     75.89791044	     47.48174853	      0.00000000	      0.00000000
     29.26157143	     -6.33201843	     -2.88882939	     -4.79209719	      1.06980255	      0.91453441	      0.41766544	     32.38890956	     -3.03560730	    -13.51318501	     15.13847378	     15.13847378	      3.87404812	      7.13267693	     10.70374035	      0.97219109	     -4.02153703	     -6.91313750	     15.02020471	     15.02020471	     21.67208601	     -1.81681594	     -3.60070234	    -11.60612803	      0.78755024	      4.41809421	    -11.49001971	    -17.43129783	     -9.15862979	     23.71061411	     47.57828539	      0.00000000	      0.00000000	     27.01708192	    -21.28313405	     -4.08414418	     78.43764507	     47.56314708	      0.00000000	      0.00000000
     29.27314286	     -6.28452336	     -2.78096204	     -4.75804105	      1.07214386	      0.91284593	      0.42008460	     31.93175054	     -2.82255796	    -13.69135352	     14.99587472	     14.99587472	      3.49604814	      7.25810246	     10.22226517	     -0.05554472	     -4.00803788	     -7.10284561	     14.60221345	     14.60221345	     22.06128694	     -1.32346492	     -3.52296699	    -11.47870114	      0.67095803	      4.71119382	    -12.98032037	    -17.24004521	     -9.42568848	     23.93305163	     47.55498533	      0.00000000	      0.00000000	     26.58052811	    -20.92164238	     -4.63316713	     82.23408186	     47.67547858	      0.00000000	      0.00000000
     29.28471429	     -6.32804952	     -2.74348997	     -4.63981123	      1.07451302	      0.91103928	      0.42265078	     31.52392084	     -2.56890318	    -13.70085400	     14.99396934	     14.99396934	      2.36238951	      6.88809746	      7.63713435	     -0.80105077	     -4.15804888	     -7.36784773	     14.54773396	     14.54773396	     22.66740229	     -0.61557098	     -3.22027843	    -11.29444158	      0.65921009	      3.76666640	    -13.94380404	    -17.13104130	     -9.94407482	     25.51031598	     47.46093355	      0.00000000	      0.00000000	     24.72944121	    -21.50392805	     -6.29735705	     87.30467479	     47.89449816	      0.00000000	      0.00000000
     29.29628571	     -6.35551137	     -2.71746704	     -4.48434331	      1.07686202	      0.90949682	      0.42515072	     31.26575275	     -2.42339366	    -13.61223181	     15.53794911	     15.53794911	      1.84365062	      6.40578241	      6.79097375	     -1.56781419	     -4.28571252	     -7.42434127	     14.43687131	     14.43687131	     23.01672923	     -0.32094851	     -3.16105970	    -11.06165139	      0.68513540	      4.23504957	    -15.13510457	    -16.81891322	     -9.87550083	     25.20036184	     47.44233094	      0.00000000	      0.00000000	     24.75485323	    -20.75173450	     -6.56223095	     89.53616835	     47.96098200	      0.00000000	      0.00000000
     29.30785714	     -6.37188785	     -2.80567283	     -4.29272586	      1.07918969	      0.90815001	      0.42799438	     30.82564800	     -2.09127967	    -13.19001446	     15.80925446	     15.80925446	      0.16353669	      5.22467491	      2.79730214	     -2.10116649	     -4.68926756	     -7.76832189	     14.83591174	     14.83591174	     23.59344564	      0.60342503	     -2.83762349	    -10.96162347	      0.77191159	      3.55125975	    -15.84628117	    -16.62862701	     -9.95314306	     26.36978827	     47.33485604	      0.00000000	      0.00000000	     23.16693865	    -20.94193487	     -7.82455672	     93.96447575	     48.14593061	      0.00000000	      0.00000000
     29.31942857	     -6.45208681	     -2.84576324	     -4.06690851	      1.08127641	      0.90699459	      0.43068567	     30.78928528	     -1.98497552	    -12.91750894	     16.85449749	     16.85449749	     -0.30108210	      4.32674524	      1.55769206	     -2.43984565	     -4.99712038	     -7.71112613	     15.36240902	     15.36240902	     23.83019291	      0.75779246	     -2.86401929	    -10.74069271	      0.84221576	      3.91427441	    -16.67053029	    -16.22132573	     -9.77246303	     26.13968453	     47.30370397	      0.00000000	      0.00000000	     23.01175565	    -20.08805786	     -8.11662927	     96.02098433	     48.21326482	      0.00000000	      0.00000000
     29.33100000	     -6.47728399	     -3.04299665	     -3.79261634	      1.08326126	      0.90627014	      0.43355725	     30.50965768	     -1.65220335	    -12.43392495	     17.54692247	     17.54692247	     -1.45346106	      2.78765269	     -1.74404658	     -2.59038952	     -5.60433796	     -7.92850276	     16.36174515	     16.36174515	     24.19044601	      1.38637255	     -2.97819928	    -10.69145335	      1.09954488	      3.28843554	    -16.80508339	    -16.04235791	     -9.37095180	     26.65925875	     47.18441185	      0.00000000	      0.00000000	     21.56297136	    -19.92211702	     -9.43897542	     99.33119268	     48.38977679	      0.00000000	      0.00000000
     29.34257143	     -6.60323436	     -3.22835052	     -3.50932909	      1.08487434	      0.90583884	      0.43638832	     30.53604129	     -1.42613188	    -12.11386627	     18.66659599	     18.66659599	     -1.45148179	      1.64340124	     -2.24752399	     -2.38398356	     -6.17617494	     -7.71140283	     17.70989877	     17.70989877	     24.22021753	      1.20367305	     -3.38455823	    -10.54105175	      1.31731150	      3.58993035	    -17.14758932	    -15.54825035	     -9.16009426	     26.52957023	     47.15398791	      0.00000000	      0.00000000	     21.20071315	    -19.11751353	     -9.51113634	    101.10126500	     48.43664800	      0.00000000	      0.00000000
     29.35414286	     -6.63258804	     -3.57057044	     -3.19407396	      1.08632641	      0.90595811	      0.43937400	     30.37395556	     -0.98359117	    -11.62612828	     19.63518993	     19.63518993	     -1.27248397	      0.18523340	     -2.68600746	     -2.04450478	     -7.02460826	     -7.66368161	     19.45361203	     19.45361203	     23.96176181	      1.28356824	     -4.34879331	    -10.62965783	      1.74275194	      3.26955512	    -16.91171932	    -15.23913797	     -8.87870552	     26.75738597	     47.09315867	      0.00000000	      0.00000000	     20.01996719	    -18.72036474	    -10.21957452	    103.46204226	     48.54205873	      0.00000000	      0.00000000
     29.36571429	     -6.74381200	     -3.86841577	     -2.83517865	      1.08745078	      0.90630263	      0.44226645	     30.28066801	     -0.66704202	    -11.50029153	     20.55219807	     20.55219807	     -0.83410362	     -0.71646311	     -2.82046991	     -1.27211252	     -7.81055891	     -7.20705797	     21.71445713	     21.71445713	     23.54728536	      0.73494449	     -5.20932529	    -10.60429018	      2.11403388	      3.38376740	    -16.69742244	    -14.76553209	     -8.63964725	     26.77356382	     47.06211812	      0.00000000	      0.00000000	     19.34626647	    -17.92105517	    -10.40670089	    104.79468828	     48.58564390	      0.00000000	      0.00000000
     29.37728571	     -6.78414204	     -4.25873035	     -2.46750503	      1.08842206	      0.90709295	      0.44531365	     30.03938518	     -0.16041803	    -11.16124918	     21.31288203	     21.31288203	     -0.08848357	     -2.00374961	     -2.18853978	     -0.38735935	     -8.75631516	     -6.81706580	     24.19188435	     24.19188435	     22.33397427	      0.11670531	     -7.59387318	    -10.76147311	      2.52667098	      2.82550526	    -15.80503227	    -14.46804194	     -8.02466860	     26.96710146	     46.97994063	      0.00000000	      0.00000000	     17.80416300	    -17.48303106	    -11.45190692	    107.00220248	     48.71285823	      0.00000000	      0.00000000
     29.38885714	     -6.84688635	     -4.65383406	     -2.02352271	      1.08912852	      0.90809732	      0.44817760	     29.66004852	      0.23701970	    -11.40024171	     21.75831905	     21.75831905	      0.56132333	     -2.43738715	     -2.20548040	      0.91293960	     -9.66458659	     -5.98532873	     27.28489163	     27.28489163	     21.33579187	     -0.89973347	     -8.56316936	    -10.84772350	      2.98768497	      3.00462389	    -15.21268576	    -14.04032895	     -7.75406586	     27.09183338	     46.95081930	      0.00000000	      0.00000000	     17.15801708	    -16.65192396	    -11.35514736	    107.54961554	     48.71957669	      0.00000000	      0.00000000
     29.40042857	     -6.93167603	     -4.98941172	     -1.61398095	      1.08970398	      0.90921931	      0.45107164	     29.34460523	      0.63562957	    -11.42862775	     22.27325062	     22.27325062	      1.83002858	     -2.90676823	     -0.52441932	      2.26529490	    -10.41457102	     -4.97954922	     30.09194637	     30.09194637	     17.92665420	     -3.34635326	    -14.32617336	    -10.92317832	      3.32219590	      2.17163355	    -13.81426937	    -13.94716571	     -5.64738427	     27.28847059	     46.73282421	      0.00000000	      0.00000000	     15.32771454	    -16.09293565	    -12.69039264	    109.28670192	     48.87886425	      0.00000000	      0.00000000
     29.41200000	     -6.96995475	     -5.29961486	     -1.12469855	      1.09008292	      0.91051281	      0.45378918	     28.79404115	      0.99540720	    -11.67162289	     22.37081218	     22.37081218	      2.56858892	     -3.35456633	     -0.12290609	      3.98942363	    -11.12801087	     -3.81225964	     33.62141087	     33.62141087	     15.34699447	     -5.42033673	    -16.91780402	    -11.03735455	      3.66849155	      2.05958075	    -12.97112309	    -13.72359078	     -3.94868051	     28.07996177	     46.53459661	      0.00000000	      0.00000000	     14.22749044	    -15.35663418	    -12.58099546	    109.65475555	     48.91284082	      0.00000000	      0.00000000
     29.42357143	     -7.02236987	     -5.60061542	     -0.64190771	      1.09029414	      0.91173699	      0.45652400	     28.19663991	      1.34886266	    -12.03142934	     22.31274931	     22.31274931	      3.17537316	     -3.59779426	     -0.15622034	      5.99908988	    -11.81300115	     -2.64184594	     37.57832410	     37.57832410	     13.18502415	     -6.95156928	    -17.60801871	    -11.13383344	      3.97417657	      2.13954024	    -11.93330083	    -13.35713454	     -3.50716093	     28.77042104	     46.47206924	      0.00000000	      0.00000000	     13.27698493	    -14.68958583	    -12.33354486	    109.55520254	     48.89869940	      0.00000000	      0.00000000
